# xmcd
#
# Track frame offsets:
#	150
#	20580
#	32757
#	47506
#	63571
#	79569
#	92409
#	107620
#	119366
#	135393
#	153864
#	168779
#	182305
#	193276
#	211578
#	230042
#	249297
#	263080
#	278242
#	292852
#
# Disc length: 4116 seconds
#
# Revision: 0
# Processed by: cddbd v1.5.2PL0 Copyright (c) Steve Scherf et al.
# Submitted via: EasyCDDAExtractor 16.0.6.1
#
DISCID=fd101214
DTITLE=Συλλογικός δίσκος - Οι χρυσές φωνές 5
DYEAR=2012
DGENRE=Ποικίλη
TTITLE0=Φαραντούρη Μαρία - Της μιάς δραχμής τα γιασεμιά [Αττίκ]
TTITLE1=Δανάη - Θα ξανάρθεις [Κώστας Γιαννίδης-Αλέκος Σακελλάριος]
TTITLE2=Μάνου Αφροδίτη - Σερενάτα χωρίς φεγγάρι [Σπήλιος Μεντής]
TTITLE3=Κανελλίδου Αλέκα - Ο ταχυδρόμος [Νινή Ζαχά-Ιωάννης Πολίτης]
TTITLE4=Πουλόπουλος Γιάννης - Απόψε έκλαψα [Γιάννης Δημητράς-Φωτεινή Δούρου]
TTITLE5=Αρλέτα - Ο γάτος [Αρλέτα]
TTITLE6=Αρβανιτάκη Ελευθερία - Ερωτικό [Νίκος Ξυδάκης-Ναπολέων Λαπαθιώτης]
TTITLE7=Γλυκερία - Στην οδό ερωτευμένων [Μάριος Τόκας-Σαράντης Αλιβιζάτος]
TTITLE8=Μητσιάς Μανώλης - Κάνε λιγάκι υπομονή [Βασίλης Τσιτσάνης]
TTITLE9=Μοσχολιού Βίκυ - Η ταμπακιέρα [Ιωσήφ Ριτσιάρδης-Μ.Τραϊφόρος/Γ.Γιαννακό
TTITLE9=πουλος]
TTITLE10=Βιολάρης Μιχάλης-χορωδία - Το δελφινοκόριτσο [Λίνος Κόκοτος-Οδυσσέας 
TTITLE10=Ελύτης]
TTITLE11=Πρωτοψάλτη Άλκηστις - Την πόρτα ανοίγω το βράδυ [Μίκης Θεοδωράκης-Τάσ
TTITLE11=ος Λειβαδίτης]
TTITLE12=Ψαριανός Δημήτρης - Και σ' αγαπώ [Δημήτρης Ψαριανός-Δημήτρης Ιατρόπου
TTITLE12=λος]
TTITLE13=Τανάγρη Μελίνα - Αμάν και πότε [ιδίας και Γιάννης Πετειναράς-Ιάσων Γρ
TTITLE13=ηγορίου]
TTITLE14=Λιδάκης Μανώλης - Σκοτάδι γυμνός [Μάνος Σμαργιανάκης]
TTITLE15=Αστεριάδη Πόπη - Σκληρό μου αγόρι [Νίκος Μαμαγκάκης-Ντίνος Δημόπουλος
TTITLE15=]
TTITLE16=Μητσιάς Μανώλης - Μη βάζεις μαράζι [Γιάννης Σπανός-Κώστας Ασημακόπουλ
TTITLE16=ος]
TTITLE17=Αγγελόπουλος Μανώλης - Καλή τύχη [Απόστολος Καλδάρας]
TTITLE18=Μπέλλου Σωτηρία - Αλήτη μ' είπες μιά βραδιά [Απόστολος Χατζηχρήστος]
TTITLE19=Καζαντζίδης Στέλιος - Το καπηλειό [Γιώργος Μητσάκης]
EXTD=
EXTT0=
EXTT1=
EXTT2=
EXTT3=
EXTT4=
EXTT5=
EXTT6=
EXTT7=
EXTT8=
EXTT9=
EXTT10=
EXTT11=
EXTT12=
EXTT13=
EXTT14=
EXTT15=
EXTT16=
EXTT17=
EXTT18=
EXTT19=
PLAYORDER=
